<?xml version="1.0" encoding="utf-8"?>
<!-- Generator: Adobe Illustrator 29.7.1, SVG Export Plug-In . SVG Version: 9.03 Build 0)  -->
<svg version="1.1" xmlns="http://www.w3.org/2000/svg" xmlns:xlink="http://www.w3.org/1999/xlink" x="0px" y="0px"
	 viewBox="0 0 47.79 20.39" style="enable-background:new 0 0 47.79 20.39;" xml:space="preserve">
<style type="text/css">
	.st0{fill:#FFFFFF;}
	.st1{fill:#333333;}
	.st2{fill:#508DF8;}
	.st3{fill:#1A2653;}
</style>
<g id="Layer_2">
</g>
<g id="Layer_1">
	<g>
		<g>
			<g>
				<path class="st1" d="M4.73,15.51h0.22v0.57h0.69v-0.57h0.22v1.31H5.64v-0.55H4.95v0.55H4.73V15.51z"/>
				<path class="st1" d="M6.93,15.51c0.08,0,0.16,0.01,0.22,0.03c0.07,0.02,0.12,0.05,0.17,0.09c0.05,0.04,0.08,0.08,0.1,0.14
					s0.04,0.12,0.04,0.19c0,0.07-0.01,0.14-0.04,0.2s-0.06,0.11-0.1,0.15c-0.05,0.04-0.1,0.07-0.17,0.09
					c-0.07,0.02-0.14,0.03-0.22,0.03H6.62v0.4H6.4v-1.31H6.93z M6.93,16.24c0.05,0,0.1-0.01,0.14-0.02c0.04-0.01,0.07-0.03,0.1-0.05
					s0.05-0.05,0.06-0.08c0.01-0.03,0.02-0.07,0.02-0.12c0-0.05-0.01-0.08-0.02-0.11c-0.02-0.03-0.03-0.06-0.06-0.08
					c-0.03-0.02-0.06-0.04-0.1-0.05c-0.04-0.01-0.08-0.02-0.14-0.02H6.62v0.53L6.93,16.24L6.93,16.24z M6.93,16.34h0.22l0.33,0.48
					H7.23L6.93,16.34z"/>
				<path class="st1" d="M8.91,16.18c-0.05,0.02-0.1,0.05-0.14,0.07c-0.04,0.02-0.07,0.05-0.09,0.07c-0.02,0.02-0.04,0.05-0.05,0.08
					c-0.01,0.03-0.01,0.05-0.01,0.08s0.01,0.05,0.02,0.08c0.02,0.02,0.03,0.05,0.06,0.06c0.02,0.02,0.05,0.03,0.09,0.04
					c0.03,0.01,0.07,0.02,0.11,0.02c0.07,0,0.13-0.01,0.19-0.03s0.1-0.05,0.14-0.09c0.04-0.04,0.07-0.09,0.1-0.16
					s0.05-0.14,0.06-0.22l0.17,0.03c-0.02,0.1-0.05,0.2-0.09,0.27c-0.04,0.08-0.09,0.15-0.15,0.2c-0.06,0.05-0.12,0.09-0.2,0.12
					c-0.07,0.03-0.15,0.04-0.24,0.04c-0.07,0-0.13-0.01-0.19-0.02c-0.06-0.02-0.11-0.04-0.15-0.07c-0.04-0.03-0.07-0.07-0.1-0.11
					c-0.02-0.04-0.04-0.09-0.04-0.14c0-0.05,0.01-0.09,0.02-0.13s0.04-0.08,0.07-0.11c0.03-0.04,0.07-0.07,0.12-0.1
					s0.11-0.06,0.17-0.09L8.91,16.18z M9.49,16.84l-0.74-0.73c-0.03-0.03-0.06-0.06-0.08-0.09C8.65,16,8.63,15.98,8.62,15.95
					c-0.02-0.02-0.02-0.05-0.03-0.08c-0.01-0.02-0.01-0.05-0.01-0.08c0-0.05,0.01-0.08,0.03-0.12c0.02-0.04,0.04-0.07,0.08-0.09
					c0.03-0.03,0.07-0.05,0.11-0.06c0.05-0.02,0.09-0.02,0.15-0.02c0.03,0,0.07,0,0.09,0.01c0.03,0.01,0.06,0.02,0.08,0.03
					c0.03,0.01,0.05,0.03,0.07,0.05c0.02,0.02,0.05,0.04,0.06,0.07l-0.12,0.1c-0.01-0.02-0.03-0.03-0.04-0.04
					c-0.02-0.01-0.03-0.02-0.05-0.03C9.03,15.67,9.02,15.67,9,15.66s-0.04-0.01-0.06-0.01c-0.03,0-0.05,0-0.08,0.01
					c-0.02,0.01-0.04,0.02-0.05,0.03c-0.02,0.01-0.02,0.03-0.03,0.05c-0.01,0.02-0.01,0.04-0.01,0.06c0,0.02,0,0.03,0.01,0.05
					c0,0.02,0.01,0.03,0.02,0.05c0.01,0.02,0.03,0.04,0.05,0.06c0.02,0.02,0.05,0.05,0.07,0.08l0.69,0.68L9.49,16.84z"/>
				<path class="st1" d="M10.57,15.51h0.26l0.45,0.89l0.45-0.89h0.26v1.31h-0.2l0-1l-0.43,0.86h-0.14l-0.44-0.86v1h-0.21
					L10.57,15.51L10.57,15.51z"/>
				<path class="st1" d="M12.93,15.51h0.23l0.57,1.31h-0.24l-0.46-1.09l-0.45,1.09h-0.23L12.93,15.51z M12.64,16.33h0.79v0.19h-0.79
					V16.33z"/>
				<path class="st1" d="M14.09,15.51h0.22l0.76,1.04l-0.06,0.02v-1.06h0.22v1.31h-0.22l-0.76-1.04l0.06-0.02v1.05h-0.22V15.51z"/>
				<path class="st1" d="M16.17,15.51h0.23l0.57,1.31h-0.24l-0.46-1.09l-0.45,1.09h-0.23L16.17,15.51z M15.88,16.33h0.79v0.19h-0.79
					V16.33z"/>
				<path class="st1" d="M18.3,15.84c-0.02-0.02-0.05-0.05-0.08-0.06c-0.03-0.02-0.06-0.03-0.09-0.05c-0.03-0.01-0.07-0.02-0.1-0.03
					c-0.03-0.01-0.07-0.01-0.1-0.01c-0.07,0-0.13,0.01-0.19,0.04c-0.06,0.02-0.11,0.06-0.15,0.1c-0.04,0.04-0.08,0.09-0.1,0.15
					c-0.02,0.06-0.04,0.12-0.04,0.19s0.01,0.13,0.04,0.19c0.02,0.06,0.06,0.11,0.1,0.15c0.04,0.04,0.09,0.08,0.15,0.1
					c0.06,0.02,0.12,0.04,0.19,0.04c0.03,0,0.06,0,0.09-0.01c0.03-0.01,0.06-0.02,0.1-0.03s0.06-0.03,0.09-0.05
					c0.03-0.02,0.06-0.04,0.08-0.06l0.13,0.15c-0.03,0.02-0.07,0.05-0.11,0.07s-0.08,0.04-0.13,0.05c-0.05,0.02-0.09,0.03-0.14,0.04
					c-0.05,0.01-0.09,0.01-0.14,0.01c-0.1,0-0.19-0.02-0.27-0.05c-0.08-0.04-0.16-0.08-0.22-0.14c-0.06-0.06-0.11-0.13-0.15-0.21
					s-0.05-0.17-0.05-0.26s0.02-0.18,0.05-0.26c0.04-0.08,0.08-0.15,0.15-0.21c0.06-0.06,0.14-0.11,0.22-0.14
					c0.08-0.03,0.18-0.05,0.28-0.05c0.05,0,0.09,0,0.14,0.01c0.05,0.01,0.09,0.02,0.13,0.04c0.04,0.02,0.08,0.04,0.12,0.06
					c0.04,0.02,0.08,0.05,0.11,0.08L18.3,15.84z M18.21,16.26h-0.4v-0.19h0.61v0.59h-0.21C18.21,16.67,18.21,16.26,18.21,16.26z"/>
				<path class="st1" d="M18.92,15.51h0.94v0.19h-0.72v0.37h0.64v0.19h-0.64v0.37h0.74v0.19h-0.96
					C18.92,16.83,18.92,15.51,18.92,15.51z"/>
				<path class="st1" d="M20.33,15.51h0.26l0.45,0.89l0.45-0.89h0.26v1.31h-0.2l0-1l-0.43,0.86h-0.14l-0.44-0.86v1h-0.21V15.51z"/>
				<path class="st1" d="M22.28,15.51h0.94v0.19H22.5v0.37h0.64v0.19H22.5v0.37h0.74v0.19h-0.96V15.51z"/>
				<path class="st1" d="M23.69,15.51h0.22l0.76,1.04l-0.06,0.02v-1.06h0.22v1.31h-0.22l-0.76-1.04l0.06-0.02v1.05h-0.22V15.51z"/>
				<path class="st1" d="M25.2,15.51h1.05v0.19h-0.42v1.12h-0.22V15.7H25.2C25.2,15.7,25.2,15.51,25.2,15.51z"/>
				<path class="st1" d="M28.15,15.86c-0.02-0.03-0.05-0.05-0.08-0.07c-0.03-0.02-0.06-0.04-0.09-0.05
					c-0.03-0.02-0.06-0.02-0.1-0.03s-0.07-0.01-0.1-0.01c-0.07,0-0.13,0.01-0.18,0.04c-0.06,0.02-0.11,0.06-0.15,0.1
					c-0.04,0.04-0.08,0.09-0.1,0.15s-0.04,0.12-0.04,0.19s0.01,0.13,0.04,0.19c0.02,0.06,0.06,0.11,0.1,0.15
					c0.04,0.04,0.09,0.08,0.15,0.1c0.06,0.02,0.12,0.04,0.18,0.04c0.03,0,0.07,0,0.1-0.01c0.03-0.01,0.06-0.02,0.1-0.03
					c0.03-0.01,0.06-0.03,0.09-0.05c0.03-0.02,0.05-0.04,0.08-0.07l0.13,0.14c-0.03,0.03-0.07,0.06-0.11,0.09
					c-0.04,0.03-0.08,0.05-0.12,0.07c-0.04,0.02-0.09,0.03-0.14,0.04c-0.05,0.01-0.09,0.02-0.14,0.02c-0.1,0-0.18-0.02-0.27-0.05
					c-0.08-0.04-0.15-0.08-0.22-0.14c-0.06-0.06-0.11-0.13-0.15-0.21c-0.04-0.08-0.05-0.17-0.05-0.26s0.02-0.18,0.05-0.26
					c0.04-0.08,0.08-0.15,0.15-0.21c0.06-0.06,0.14-0.11,0.22-0.14c0.08-0.03,0.18-0.05,0.27-0.05c0.05,0,0.09,0.01,0.14,0.02
					s0.09,0.02,0.13,0.04c0.04,0.02,0.08,0.04,0.12,0.06c0.04,0.02,0.07,0.05,0.11,0.08L28.15,15.86z"/>
				<path class="st1" d="M29.55,15.55c0.08,0.03,0.16,0.08,0.22,0.14s0.11,0.13,0.15,0.21c0.04,0.08,0.05,0.17,0.05,0.26
					c0,0.09-0.02,0.18-0.05,0.26c-0.04,0.08-0.08,0.15-0.15,0.21c-0.06,0.06-0.14,0.11-0.22,0.14c-0.08,0.03-0.18,0.05-0.27,0.05
					c-0.1,0-0.19-0.02-0.27-0.05c-0.08-0.04-0.16-0.08-0.22-0.14c-0.06-0.06-0.11-0.13-0.15-0.21c-0.04-0.08-0.05-0.17-0.05-0.26
					c0-0.09,0.02-0.18,0.05-0.26c0.04-0.08,0.08-0.15,0.15-0.21s0.14-0.11,0.22-0.14s0.18-0.05,0.27-0.05
					C29.38,15.5,29.47,15.52,29.55,15.55z M29.1,15.73c-0.06,0.02-0.11,0.06-0.15,0.1c-0.04,0.04-0.08,0.09-0.1,0.15
					s-0.04,0.12-0.04,0.19s0.01,0.13,0.04,0.19s0.06,0.11,0.1,0.15c0.04,0.04,0.09,0.08,0.15,0.1s0.12,0.04,0.18,0.04
					c0.06,0,0.12-0.01,0.18-0.04c0.06-0.03,0.11-0.06,0.15-0.1c0.04-0.04,0.08-0.09,0.1-0.15s0.04-0.12,0.04-0.19
					c0-0.07-0.01-0.13-0.04-0.19s-0.06-0.11-0.1-0.15c-0.04-0.04-0.09-0.08-0.15-0.1c-0.06-0.02-0.12-0.04-0.18-0.04
					C29.22,15.69,29.16,15.7,29.1,15.73z"/>
				<path class="st1" d="M30.4,15.51h0.22l0.76,1.04l-0.06,0.02v-1.06h0.22v1.31h-0.22l-0.76-1.04l0.06-0.02v1.05H30.4V15.51z"/>
				<path class="st1" d="M32.87,15.82c-0.03-0.02-0.06-0.03-0.09-0.05c-0.03-0.02-0.06-0.03-0.1-0.04s-0.07-0.02-0.1-0.02
					c-0.03-0.01-0.07-0.01-0.1-0.01c-0.02,0-0.05,0-0.07,0.01c-0.02,0-0.05,0.01-0.07,0.02c-0.02,0.01-0.04,0.03-0.05,0.05
					c-0.01,0.02-0.02,0.04-0.02,0.07c0,0.04,0.01,0.07,0.03,0.09c0.02,0.02,0.05,0.05,0.08,0.06c0.03,0.02,0.07,0.03,0.11,0.05
					c0.04,0.01,0.08,0.03,0.13,0.04c0.05,0.02,0.09,0.03,0.13,0.05c0.04,0.02,0.08,0.04,0.11,0.07c0.03,0.03,0.06,0.06,0.08,0.1
					c0.02,0.04,0.03,0.09,0.03,0.15c0,0.07-0.02,0.12-0.05,0.17s-0.07,0.09-0.11,0.12c-0.05,0.03-0.1,0.05-0.16,0.07
					c-0.06,0.02-0.12,0.02-0.18,0.02c-0.05,0-0.1,0-0.15-0.02s-0.1-0.02-0.14-0.04c-0.05-0.02-0.09-0.04-0.13-0.07
					s-0.08-0.05-0.12-0.09l0.1-0.18c0.03,0.03,0.06,0.05,0.1,0.08c0.03,0.02,0.07,0.05,0.11,0.06c0.04,0.02,0.08,0.03,0.12,0.04
					c0.04,0.01,0.08,0.02,0.12,0.02c0.03,0,0.05,0,0.08-0.01c0.03-0.01,0.05-0.02,0.08-0.03s0.04-0.03,0.06-0.05
					c0.02-0.02,0.02-0.05,0.02-0.08c0-0.04-0.01-0.07-0.03-0.09c-0.02-0.02-0.05-0.05-0.08-0.06c-0.03-0.02-0.07-0.03-0.11-0.05
					c-0.04-0.01-0.08-0.02-0.13-0.04c-0.05-0.02-0.09-0.03-0.13-0.05c-0.04-0.02-0.08-0.04-0.11-0.07c-0.03-0.03-0.06-0.06-0.08-0.1
					c-0.02-0.04-0.03-0.09-0.03-0.15c0-0.07,0.02-0.12,0.04-0.17c0.03-0.05,0.07-0.08,0.11-0.11c0.05-0.03,0.1-0.05,0.15-0.06
					s0.11-0.02,0.17-0.02c0.04,0,0.08,0,0.12,0.01s0.08,0.02,0.12,0.02s0.08,0.02,0.11,0.04c0.04,0.02,0.07,0.04,0.11,0.06
					L32.87,15.82z"/>
				<path class="st1" d="M33.62,16.29c0,0.06,0.01,0.11,0.02,0.15c0.02,0.05,0.04,0.08,0.07,0.11c0.03,0.03,0.07,0.05,0.11,0.07
					c0.04,0.02,0.09,0.02,0.15,0.02c0.05,0,0.1-0.01,0.14-0.02c0.04-0.02,0.08-0.04,0.11-0.07c0.03-0.03,0.05-0.07,0.07-0.11
					s0.02-0.1,0.02-0.15v-0.77h0.22v0.77c0,0.08-0.01,0.16-0.04,0.23c-0.03,0.07-0.06,0.13-0.11,0.18s-0.11,0.08-0.18,0.11
					c-0.07,0.02-0.15,0.04-0.24,0.04c-0.09,0-0.17-0.01-0.24-0.04c-0.07-0.02-0.13-0.06-0.18-0.11c-0.05-0.05-0.09-0.11-0.11-0.18
					c-0.03-0.07-0.04-0.15-0.04-0.23v-0.77h0.22L33.62,16.29L33.62,16.29z"/>
				<path class="st1" d="M35.03,15.51h0.22v1.12h0.57v0.19h-0.79V15.51z"/>
				<path class="st1" d="M36.06,15.51h1.05v0.19h-0.42v1.12h-0.22V15.7h-0.41L36.06,15.51L36.06,15.51z"/>
				<path class="st1" d="M37.89,15.51h0.23l0.57,1.31h-0.24L38,15.74l-0.45,1.09h-0.23L37.89,15.51z M37.6,16.33h0.79v0.19H37.6
					V16.33z"/>
				<path class="st1" d="M39.05,15.51h0.22l0.76,1.04l-0.06,0.02v-1.06h0.22v1.31h-0.22l-0.76-1.04l0.06-0.02v1.05h-0.22
					C39.05,16.83,39.05,15.51,39.05,15.51z"/>
				<path class="st1" d="M41.67,15.86c-0.02-0.03-0.05-0.05-0.08-0.07c-0.03-0.02-0.06-0.04-0.09-0.05
					c-0.03-0.02-0.06-0.02-0.1-0.03s-0.07-0.01-0.1-0.01c-0.07,0-0.13,0.01-0.18,0.04c-0.06,0.02-0.11,0.06-0.15,0.1
					s-0.08,0.09-0.1,0.15s-0.04,0.12-0.04,0.19s0.01,0.13,0.04,0.19c0.02,0.06,0.06,0.11,0.1,0.15s0.09,0.08,0.15,0.1
					c0.06,0.02,0.12,0.04,0.18,0.04c0.03,0,0.07,0,0.1-0.01c0.03-0.01,0.06-0.02,0.1-0.03c0.03-0.01,0.06-0.03,0.09-0.05
					c0.03-0.02,0.05-0.04,0.08-0.07l0.13,0.14c-0.03,0.03-0.07,0.06-0.11,0.09c-0.04,0.03-0.08,0.05-0.12,0.07
					c-0.04,0.02-0.09,0.03-0.14,0.04c-0.05,0.01-0.09,0.02-0.14,0.02c-0.1,0-0.18-0.02-0.27-0.05c-0.08-0.04-0.15-0.08-0.22-0.14
					c-0.06-0.06-0.11-0.13-0.15-0.21c-0.04-0.08-0.05-0.17-0.05-0.26s0.02-0.18,0.05-0.26s0.08-0.15,0.15-0.21
					c0.06-0.06,0.14-0.11,0.22-0.14c0.08-0.03,0.18-0.05,0.27-0.05c0.05,0,0.09,0.01,0.14,0.02c0.05,0.01,0.09,0.02,0.13,0.04
					c0.04,0.02,0.08,0.04,0.12,0.06c0.04,0.02,0.07,0.05,0.11,0.08L41.67,15.86z"/>
				<path class="st1" d="M42.04,15.51h0.22l0.37,0.65l0.37-0.65h0.22l-0.58,1.03h-0.03L42.04,15.51z M42.53,16.27h0.22v0.55h-0.22
					V16.27z"/>
			</g>
		</g>
		<g>
			<g>
				<path class="st2" d="M7.87,6.98c-0.83,0-1.52,0.35-1.92,0.99V4.55H4.56v5.41c0,1.87,1.26,3.08,3.07,3.08
					c1.83,0,3.12-1.26,3.12-3.09C10.75,7.98,9.27,6.98,7.87,6.98z M7.64,11.75c-1.02,0-1.69-0.73-1.69-1.74s0.68-1.74,1.69-1.74
					s1.7,0.73,1.7,1.74S8.65,11.75,7.64,11.75z"/>
				<path class="st2" d="M17.61,10.01c0-1.75-1.26-3.03-3.08-3.03s-3.11,1.28-3.11,3.03s1.28,3.03,3.11,3.03
					c1.37,0,2.42-0.71,2.85-1.81h-1.48c-0.29,0.37-0.75,0.55-1.37,0.55c-0.82,0-1.46-0.44-1.65-1.28h4.73
					C17.61,10.5,17.61,10.01,17.61,10.01z M12.91,9.4c0.22-0.76,0.83-1.15,1.61-1.15c0.76,0,1.39,0.38,1.61,1.15H12.91z"/>
				<path class="st3" d="M20.09,7.26c0-0.89,0.47-1.25,1.15-1.25s1.15,0.35,1.15,1.26h1.38c0-1.7-1.02-2.56-2.52-2.56
					c-1.5,0-2.53,0.84-2.53,2.54v5.79h1.39V9.56h2.29V8.29H20.1L20.09,7.26L20.09,7.26z"/>
				<path class="st3" d="M29.75,7.13c-1.5,0-2.53,0.83-2.53,2.57v3.35h1.39V9.7c0-0.93,0.47-1.27,1.15-1.27
					c0.68,0,1.15,0.34,1.15,1.27v0.06h1.38V9.72C32.27,7.96,31.26,7.13,29.75,7.13z"/>
				<path class="st3" d="M24.33,7.14v1.3c0.56,0.07,0.94,0.43,0.94,1.26v3.35h1.39V9.7C26.66,8.04,25.72,7.21,24.33,7.14z"/>
				<path class="st3" d="M35.41,9.42c-0.62-0.08-1.15-0.15-1.15-0.6c0-0.34,0.3-0.63,0.91-0.63c0.55,0,0.88,0.24,0.91,0.6h1.38
					c-0.04-1.02-0.9-1.81-2.31-1.81c-1.39,0-2.29,0.77-2.29,1.95c0,1.41,1.31,1.57,2.19,1.68c0.62,0.08,1.13,0.14,1.13,0.58
					c0,0.35-0.31,0.64-1.02,0.64c-0.68,0-1.02-0.26-1.03-0.64h-1.4c0.04,1.07,0.96,1.86,2.43,1.86c1.47,0,2.42-0.77,2.42-1.94
					C37.6,9.67,36.18,9.52,35.41,9.42z"/>
				<path class="st3" d="M41.84,10.53v0.15c0,0.78-0.4,1.08-0.97,1.08c-0.57,0-0.97-0.31-0.97-1.08V8.39h2.98V7.03H39.9V4.57h-1.39
					v6.01c0,1.7,0.96,2.47,2.36,2.47c1.4,0,2.36-0.77,2.36-2.37v-0.15L41.84,10.53L41.84,10.53z"/>
			</g>
			<path class="st2" d="M28.85,5.45c0,0.55-0.23,1.04-0.6,1.39c-0.16-0.28-0.4-0.5-0.69-0.63c0.22-0.18,0.36-0.45,0.36-0.75
				c0-0.53-0.43-0.97-0.97-0.97s-0.97,0.43-0.97,0.97c0,0.31,0.14,0.57,0.36,0.75c-0.3,0.13-0.54,0.35-0.69,0.63
				c-0.37-0.35-0.6-0.84-0.6-1.39c0-1.05,0.85-1.9,1.9-1.9S28.85,4.4,28.85,5.45z"/>
		</g>
	</g>
</g>
</svg>
