<?xml version="1.0" encoding="utf-8"?>
<!-- Generator: Adobe Illustrator 29.7.1, SVG Export Plug-In . SVG Version: 9.03 Build 0)  -->
<svg version="1.1" id="Layer_1" xmlns="http://www.w3.org/2000/svg" xmlns:xlink="http://www.w3.org/1999/xlink" x="0px" y="0px"
	 viewBox="0 0 150 64" style="enable-background:new 0 0 150 64;" xml:space="preserve">
<style type="text/css">
	.st0{fill:#333333;}
	.st1{fill:#508DF8;}
	.st2{fill:#1A2653;}
	.st3{fill:none;}
</style>
<g>
	<g>
		<path class="st0" d="M11.07,47h0.73v1.9h2.3V47h0.73v4.34H14.1v-1.81h-2.3v1.81h-0.73V47z"/>
		<path class="st0" d="M18.35,47c0.28,0,0.52,0.03,0.74,0.1s0.4,0.16,0.55,0.29c0.15,0.13,0.26,0.28,0.34,0.46
			c0.08,0.18,0.12,0.39,0.12,0.62c0,0.24-0.04,0.46-0.12,0.65c-0.08,0.19-0.19,0.35-0.34,0.48c-0.15,0.13-0.33,0.23-0.55,0.3
			s-0.46,0.1-0.74,0.1h-1.03v1.32h-0.73V47H18.35z M18.35,49.39c0.17,0,0.32-0.02,0.45-0.06c0.13-0.04,0.24-0.09,0.33-0.17
			s0.16-0.17,0.2-0.28s0.07-0.24,0.07-0.39c0-0.15-0.02-0.27-0.07-0.38s-0.11-0.2-0.2-0.27s-0.2-0.12-0.33-0.16
			c-0.13-0.04-0.28-0.05-0.45-0.05h-1.03v1.77H18.35z M18.37,49.73h0.72l1.08,1.6h-0.83L18.37,49.73z"/>
		<path class="st0" d="M24.9,49.19c-0.18,0.08-0.33,0.15-0.46,0.23c-0.12,0.08-0.22,0.16-0.29,0.24c-0.07,0.08-0.12,0.17-0.15,0.25
			c-0.03,0.09-0.04,0.17-0.04,0.26c0,0.09,0.02,0.18,0.07,0.26s0.11,0.15,0.19,0.2c0.08,0.06,0.18,0.1,0.29,0.13
			c0.11,0.03,0.24,0.05,0.38,0.05c0.23,0,0.44-0.03,0.62-0.1c0.18-0.07,0.33-0.17,0.47-0.31c0.13-0.14,0.24-0.31,0.33-0.52
			c0.09-0.21,0.15-0.45,0.2-0.73l0.56,0.11c-0.06,0.34-0.16,0.65-0.29,0.91c-0.13,0.26-0.29,0.48-0.48,0.66
			c-0.19,0.18-0.4,0.31-0.65,0.4c-0.24,0.09-0.51,0.14-0.8,0.14c-0.23,0-0.43-0.03-0.62-0.08c-0.19-0.06-0.35-0.13-0.49-0.24
			c-0.14-0.1-0.24-0.22-0.32-0.36c-0.08-0.14-0.12-0.29-0.12-0.46c0-0.15,0.02-0.29,0.07-0.42s0.12-0.26,0.22-0.38
			c0.1-0.12,0.23-0.23,0.39-0.34c0.16-0.11,0.35-0.21,0.57-0.31L24.9,49.19z M26.84,51.4L24.39,49c-0.11-0.1-0.2-0.2-0.27-0.29
			s-0.13-0.18-0.18-0.26c-0.05-0.08-0.08-0.17-0.1-0.25s-0.03-0.16-0.03-0.25c0-0.15,0.03-0.28,0.09-0.41
			c0.06-0.12,0.14-0.23,0.25-0.31c0.11-0.09,0.23-0.15,0.38-0.2c0.15-0.05,0.31-0.07,0.48-0.07c0.11,0,0.22,0.01,0.31,0.03
			s0.19,0.05,0.28,0.09c0.09,0.04,0.17,0.09,0.24,0.15c0.08,0.06,0.15,0.13,0.21,0.22l-0.4,0.34c-0.04-0.05-0.09-0.09-0.13-0.14
			c-0.05-0.04-0.1-0.08-0.15-0.1c-0.05-0.03-0.11-0.05-0.17-0.07c-0.06-0.02-0.13-0.03-0.2-0.03c-0.1,0-0.18,0.01-0.25,0.04
			s-0.13,0.06-0.18,0.1s-0.08,0.09-0.1,0.16c-0.02,0.06-0.04,0.13-0.04,0.2c0,0.06,0.01,0.11,0.02,0.16s0.04,0.11,0.08,0.16
			s0.09,0.12,0.15,0.2s0.15,0.16,0.24,0.25l2.29,2.24L26.84,51.4z"/>
		<path class="st0" d="M30.41,47h0.85l1.5,2.94L34.25,47h0.85v4.34h-0.67l-0.01-3.31l-1.42,2.86h-0.46l-1.44-2.86v3.31h-0.68V47z"/>
		<path class="st0" d="M38.2,47h0.75l1.9,4.34h-0.78l-1.51-3.6l-1.5,3.6h-0.76L38.2,47z M37.24,49.71h2.6v0.62h-2.6V49.71z"/>
		<path class="st0" d="M42.04,47h0.72l2.51,3.44l-0.19,0.06V47h0.72v4.34h-0.72l-2.5-3.43l0.19-0.06v3.49h-0.73V47z"/>
		<path class="st0" d="M48.92,47h0.75l1.9,4.34h-0.78l-1.51-3.6l-1.5,3.6h-0.76L48.92,47z M47.96,49.71h2.6v0.62h-2.6V49.71z"/>
		<path class="st0" d="M55.97,48.07c-0.08-0.08-0.17-0.15-0.27-0.21s-0.2-0.11-0.31-0.16c-0.11-0.04-0.22-0.08-0.33-0.1
			c-0.11-0.02-0.23-0.03-0.34-0.03c-0.22,0-0.43,0.04-0.62,0.12c-0.19,0.08-0.36,0.2-0.5,0.34s-0.25,0.31-0.34,0.51
			c-0.08,0.19-0.12,0.4-0.12,0.62c0,0.22,0.04,0.43,0.12,0.63s0.2,0.37,0.34,0.51c0.14,0.14,0.31,0.26,0.5,0.34
			c0.19,0.08,0.4,0.12,0.62,0.12c0.1,0,0.2-0.01,0.31-0.03s0.21-0.05,0.32-0.09s0.21-0.09,0.31-0.15s0.19-0.12,0.28-0.19l0.42,0.51
			c-0.11,0.08-0.23,0.16-0.37,0.23s-0.27,0.13-0.42,0.18c-0.15,0.05-0.29,0.09-0.45,0.12c-0.15,0.03-0.3,0.04-0.45,0.04
			c-0.32,0-0.62-0.06-0.9-0.17c-0.28-0.12-0.52-0.27-0.72-0.47c-0.2-0.2-0.37-0.44-0.48-0.71s-0.18-0.56-0.18-0.87
			c0-0.31,0.06-0.6,0.18-0.87s0.28-0.5,0.49-0.7s0.45-0.35,0.74-0.47c0.28-0.11,0.59-0.17,0.92-0.17c0.15,0,0.31,0.01,0.46,0.04
			c0.15,0.03,0.3,0.07,0.44,0.12s0.28,0.12,0.41,0.19c0.13,0.08,0.25,0.16,0.35,0.26L55.97,48.07z M55.68,49.47h-1.33v-0.62h2.01
			v1.96h-0.68V49.47z"/>
		<path class="st0" d="M58.02,47h3.1v0.63h-2.37v1.22h2.12v0.62h-2.12v1.24h2.44v0.63h-3.17V47z"/>
		<path class="st0" d="M62.7,47h0.85l1.5,2.94L66.53,47h0.85v4.34h-0.67l-0.01-3.31l-1.42,2.86h-0.46l-1.44-2.86v3.31H62.7V47z"/>
		<path class="st0" d="M69.14,47h3.1v0.63h-2.37v1.22h2.12v0.62h-2.12v1.24h2.44v0.63h-3.17V47z"/>
		<path class="st0" d="M73.82,47h0.72l2.51,3.44l-0.19,0.06V47h0.72v4.34h-0.72l-2.5-3.43l0.19-0.06v3.49h-0.73V47z"/>
		<path class="st0" d="M78.83,47h3.47v0.63h-1.38v3.71H80.2v-3.71h-1.37V47z"/>
		<path class="st0" d="M88.59,48.13c-0.08-0.09-0.17-0.17-0.26-0.23c-0.09-0.07-0.19-0.13-0.3-0.17c-0.1-0.05-0.21-0.08-0.32-0.11
			c-0.11-0.03-0.22-0.04-0.33-0.04c-0.22,0-0.42,0.04-0.61,0.12c-0.19,0.08-0.35,0.2-0.49,0.34c-0.14,0.14-0.25,0.31-0.33,0.5
			c-0.08,0.19-0.12,0.4-0.12,0.62c0,0.22,0.04,0.42,0.12,0.62c0.08,0.19,0.19,0.36,0.33,0.5c0.14,0.14,0.3,0.26,0.49,0.34
			c0.19,0.08,0.39,0.12,0.61,0.12c0.11,0,0.22-0.01,0.33-0.04c0.11-0.02,0.21-0.06,0.32-0.1c0.1-0.04,0.2-0.1,0.3-0.16
			c0.09-0.06,0.18-0.14,0.27-0.22l0.43,0.45c-0.11,0.11-0.23,0.21-0.36,0.29c-0.13,0.09-0.27,0.16-0.41,0.22s-0.29,0.11-0.45,0.14
			c-0.15,0.03-0.31,0.05-0.46,0.05c-0.32,0-0.61-0.06-0.89-0.17c-0.27-0.12-0.51-0.27-0.72-0.47s-0.36-0.44-0.48-0.71
			c-0.12-0.27-0.17-0.56-0.17-0.87c0-0.31,0.06-0.6,0.18-0.87s0.28-0.5,0.48-0.7c0.2-0.2,0.45-0.35,0.72-0.47
			c0.28-0.11,0.58-0.17,0.9-0.17c0.15,0,0.31,0.02,0.46,0.05c0.15,0.03,0.3,0.08,0.44,0.13c0.14,0.06,0.28,0.13,0.4,0.21
			c0.13,0.08,0.24,0.17,0.35,0.28L88.59,48.13z"/>
		<path class="st0" d="M93.23,47.12c0.28,0.11,0.52,0.27,0.73,0.47s0.37,0.43,0.49,0.7s0.18,0.56,0.18,0.87
			c0,0.31-0.06,0.6-0.18,0.87s-0.28,0.51-0.49,0.71s-0.45,0.36-0.73,0.47c-0.28,0.11-0.58,0.17-0.91,0.17s-0.63-0.06-0.91-0.17
			c-0.28-0.12-0.52-0.27-0.73-0.47c-0.21-0.2-0.37-0.44-0.49-0.71s-0.18-0.56-0.18-0.87s0.06-0.6,0.18-0.87s0.28-0.5,0.49-0.7
			c0.21-0.2,0.45-0.35,0.73-0.47s0.58-0.17,0.91-0.17S92.95,47.01,93.23,47.12z M91.73,47.7c-0.19,0.08-0.36,0.2-0.5,0.34
			c-0.14,0.14-0.25,0.31-0.34,0.5s-0.12,0.4-0.12,0.62c0,0.22,0.04,0.43,0.12,0.63s0.2,0.37,0.34,0.51c0.14,0.14,0.31,0.26,0.5,0.34
			s0.39,0.13,0.6,0.13c0.21,0,0.41-0.04,0.6-0.13s0.35-0.2,0.49-0.34c0.14-0.14,0.25-0.31,0.33-0.51s0.12-0.4,0.12-0.63
			c0-0.22-0.04-0.43-0.12-0.62s-0.19-0.36-0.33-0.5c-0.14-0.14-0.3-0.25-0.49-0.34c-0.19-0.08-0.39-0.12-0.6-0.12
			C92.12,47.57,91.92,47.62,91.73,47.7z"/>
		<path class="st0" d="M96.02,47h0.72l2.51,3.44l-0.19,0.06V47h0.72v4.34h-0.72l-2.5-3.43l0.19-0.06v3.49h-0.73V47z"/>
		<path class="st0" d="M104.19,48c-0.09-0.06-0.19-0.11-0.29-0.16c-0.1-0.05-0.21-0.09-0.32-0.13s-0.22-0.06-0.33-0.08
			s-0.22-0.03-0.33-0.03c-0.08,0-0.16,0.01-0.24,0.02c-0.08,0.01-0.16,0.04-0.23,0.08c-0.07,0.04-0.13,0.09-0.17,0.15
			c-0.04,0.06-0.07,0.14-0.07,0.24c0,0.12,0.03,0.23,0.1,0.31c0.07,0.08,0.16,0.15,0.27,0.21c0.11,0.06,0.23,0.11,0.37,0.15
			c0.14,0.04,0.28,0.09,0.43,0.13c0.15,0.05,0.29,0.1,0.43,0.16c0.14,0.06,0.26,0.14,0.37,0.23c0.11,0.09,0.2,0.21,0.26,0.34
			c0.07,0.14,0.1,0.3,0.1,0.5c0,0.22-0.05,0.41-0.15,0.57c-0.1,0.16-0.23,0.29-0.38,0.39c-0.16,0.1-0.33,0.18-0.52,0.22
			c-0.19,0.05-0.39,0.07-0.58,0.07c-0.16,0-0.32-0.01-0.48-0.05s-0.32-0.08-0.47-0.13c-0.15-0.06-0.29-0.13-0.43-0.22
			c-0.14-0.09-0.27-0.18-0.39-0.29l0.32-0.6c0.1,0.09,0.2,0.17,0.32,0.25c0.11,0.08,0.23,0.15,0.36,0.2
			c0.13,0.06,0.26,0.1,0.39,0.13c0.13,0.03,0.27,0.05,0.4,0.05c0.09,0,0.18-0.01,0.28-0.03c0.09-0.02,0.18-0.05,0.26-0.09
			c0.08-0.04,0.14-0.1,0.19-0.17c0.05-0.07,0.08-0.16,0.08-0.27c0-0.13-0.03-0.23-0.1-0.31c-0.07-0.08-0.16-0.15-0.26-0.21
			s-0.23-0.11-0.37-0.15c-0.14-0.04-0.28-0.08-0.43-0.13c-0.15-0.05-0.29-0.1-0.43-0.16c-0.14-0.06-0.27-0.13-0.38-0.23
			s-0.2-0.21-0.26-0.34s-0.1-0.3-0.1-0.49c0-0.22,0.05-0.4,0.14-0.55c0.09-0.15,0.22-0.28,0.37-0.37c0.15-0.1,0.32-0.17,0.51-0.21
			c0.19-0.04,0.38-0.07,0.56-0.07c0.13,0,0.27,0.01,0.4,0.03c0.13,0.02,0.26,0.05,0.39,0.08s0.25,0.08,0.38,0.14
			c0.12,0.06,0.24,0.12,0.35,0.19L104.19,48z"/>
		<path class="st0" d="M106.67,49.56c0,0.19,0.03,0.36,0.08,0.51c0.05,0.15,0.13,0.28,0.23,0.38c0.1,0.1,0.22,0.18,0.36,0.24
			c0.14,0.06,0.3,0.08,0.48,0.08c0.17,0,0.33-0.03,0.47-0.08c0.14-0.05,0.26-0.13,0.35-0.24c0.1-0.1,0.17-0.23,0.22-0.38
			c0.05-0.15,0.08-0.32,0.08-0.51V47h0.73v2.56c0,0.28-0.04,0.54-0.13,0.76c-0.09,0.23-0.21,0.42-0.37,0.58
			c-0.16,0.16-0.35,0.28-0.58,0.36c-0.23,0.08-0.49,0.13-0.78,0.13c-0.29,0-0.55-0.04-0.79-0.13c-0.23-0.08-0.43-0.2-0.59-0.36
			c-0.16-0.16-0.29-0.35-0.37-0.58c-0.09-0.23-0.13-0.48-0.13-0.76V47h0.73V49.56z"/>
		<path class="st0" d="M111.34,47h0.73v3.71h1.88v0.63h-2.61V47z"/>
		<path class="st0" d="M114.75,47h3.47v0.63h-1.38v3.71h-0.73v-3.71h-1.37V47z"/>
		<path class="st0" d="M120.82,47h0.75l1.9,4.34h-0.78l-1.51-3.6l-1.5,3.6h-0.76L120.82,47z M119.86,49.71h2.6v0.62h-2.6V49.71z"/>
		<path class="st0" d="M124.66,47h0.72l2.51,3.44l-0.19,0.06V47h0.72v4.34h-0.72l-2.5-3.43l0.19-0.06v3.49h-0.73V47z"/>
		<path class="st0" d="M133.33,48.13c-0.08-0.09-0.17-0.17-0.26-0.23c-0.09-0.07-0.19-0.13-0.3-0.17c-0.1-0.05-0.21-0.08-0.32-0.11
			c-0.11-0.03-0.22-0.04-0.33-0.04c-0.22,0-0.42,0.04-0.61,0.12c-0.19,0.08-0.35,0.2-0.49,0.34c-0.14,0.14-0.25,0.31-0.33,0.5
			c-0.08,0.19-0.12,0.4-0.12,0.62c0,0.22,0.04,0.42,0.12,0.62c0.08,0.19,0.19,0.36,0.33,0.5c0.14,0.14,0.3,0.26,0.49,0.34
			c0.19,0.08,0.39,0.12,0.61,0.12c0.11,0,0.22-0.01,0.33-0.04c0.11-0.02,0.21-0.06,0.32-0.1c0.1-0.04,0.2-0.1,0.3-0.16
			c0.09-0.06,0.18-0.14,0.27-0.22l0.43,0.45c-0.11,0.11-0.23,0.21-0.36,0.29c-0.13,0.09-0.27,0.16-0.41,0.22s-0.29,0.11-0.45,0.14
			c-0.15,0.03-0.31,0.05-0.46,0.05c-0.32,0-0.61-0.06-0.89-0.17c-0.27-0.12-0.51-0.27-0.72-0.47s-0.36-0.44-0.48-0.71
			c-0.12-0.27-0.17-0.56-0.17-0.87c0-0.31,0.06-0.6,0.18-0.87s0.28-0.5,0.48-0.7c0.2-0.2,0.45-0.35,0.72-0.47
			c0.28-0.11,0.58-0.17,0.9-0.17c0.15,0,0.31,0.02,0.46,0.05c0.15,0.03,0.3,0.08,0.44,0.13c0.14,0.06,0.28,0.13,0.4,0.21
			c0.13,0.08,0.24,0.17,0.35,0.28L133.33,48.13z"/>
		<path class="st0" d="M134.56,47h0.74l1.24,2.14l1.21-2.14h0.74l-1.91,3.42h-0.1L134.56,47z M136.18,49.51h0.72v1.83h-0.72V49.51z"
			/>
	</g>
</g>
<g>
	<g>
		<path class="st1" d="M21.47,18.75c-2.74,0-5.02,1.16-6.37,3.28v-11.3h-4.6v17.9c0,6.18,4.17,10.2,10.16,10.2
			c6.07,0,10.32-4.17,10.32-10.24C30.98,22.07,26.11,18.75,21.47,18.75z M20.7,34.55c-3.36,0-5.6-2.4-5.6-5.76
			c0-3.36,2.24-5.76,5.6-5.76c3.36,0,5.64,2.4,5.64,5.76C26.34,32.15,24.06,34.55,20.7,34.55z"/>
		<path class="st1" d="M53.69,28.79c0-5.8-4.17-10.04-10.2-10.04c-6.03,0-10.28,4.25-10.28,10.04c0,5.79,4.25,10.04,10.28,10.04
			c4.52,0,8-2.36,9.43-5.99h-4.91c-0.97,1.24-2.47,1.82-4.52,1.82c-2.7,0-4.83-1.47-5.45-4.25h15.65V28.79z M38.16,26.75
			c0.73-2.51,2.74-3.82,5.33-3.82c2.51,0,4.6,1.27,5.33,3.82H38.16z"/>
		<path class="st2" d="M61.92,19.67c0-2.94,1.55-4.13,3.79-4.13c2.24,0,3.79,1.16,3.79,4.17h4.56c0-5.64-3.36-8.46-8.35-8.46
			c-4.98,0-8.38,2.78-8.38,8.42v19.17h4.6V27.28h7.59V23.1h-7.59V19.67z"/>
		<path class="st2" d="M93.88,19.25c-4.98,0-8.38,2.74-8.38,8.5v11.09h4.6V27.75c0-3.09,1.54-4.21,3.79-4.21
			c2.24,0,3.79,1.12,3.79,4.21v0.19h4.56v-0.12C102.22,21.99,98.86,19.25,93.88,19.25z"/>
		<path class="st2" d="M75.95,19.27v4.31c1.86,0.22,3.1,1.41,3.1,4.17v11.09h4.6V27.75C83.64,22.27,80.55,19.52,75.95,19.27z"/>
		<path class="st2" d="M112.61,26.82c-2.05-0.27-3.79-0.5-3.79-1.97c0-1.12,1-2.09,3.01-2.09c1.82,0,2.9,0.81,3.01,1.97h4.56
			c-0.12-3.36-2.97-5.99-7.65-5.99c-4.6,0-7.57,2.55-7.57,6.45c0,4.67,4.33,5.18,7.26,5.56c2.05,0.27,3.75,0.46,3.75,1.93
			c0,1.16-1.01,2.13-3.36,2.13c-2.24,0-3.36-0.85-3.4-2.13h-4.64c0.12,3.55,3.17,6.14,8.04,6.14c4.87,0,8-2.55,8-6.41
			C119.84,27.67,115.16,27.17,112.61,26.82z"/>
		<path class="st2" d="M133.9,30.49V31c0,2.59-1.31,3.56-3.21,3.56c-1.89,0-3.21-1.01-3.21-3.56v-7.57h9.85v-4.51h-9.85v-8.13h-4.6
			v19.88c0,5.64,3.17,8.19,7.8,8.19c4.64,0,7.8-2.55,7.8-7.84v-0.5H133.9z"/>
	</g>
	<path class="st1" d="M90.91,13.69c0,1.81-0.76,3.44-1.98,4.59c-0.52-0.92-1.33-1.66-2.3-2.09c0.73-0.59,1.19-1.49,1.19-2.49
		c0-1.77-1.43-3.2-3.2-3.2c-1.77,0-3.2,1.43-3.2,3.2c0,1.01,0.46,1.9,1.19,2.49c-0.98,0.43-1.79,1.17-2.3,2.09
		c-1.22-1.15-1.98-2.78-1.98-4.59c0-3.48,2.82-6.3,6.3-6.3S90.91,10.21,90.91,13.69z"/>
</g>
</svg>
