<?xml version="1.0" encoding="utf-8"?>
<!-- Generator: Adobe Illustrator 29.7.1, SVG Export Plug-In . SVG Version: 9.03 Build 0)  -->
<svg version="1.1" id="Layer_1" xmlns="http://www.w3.org/2000/svg" xmlns:xlink="http://www.w3.org/1999/xlink" x="0px" y="0px"
	 viewBox="0 0 105.19 44.88" style="enable-background:new 0 0 105.19 44.88;" xml:space="preserve">
<style type="text/css">
	.st0{fill:#333333;}
	.st1{fill:#508DF8;}
	.st2{fill:#1A2653;}
</style>
<g>
	<g>
		<g>
			<path class="st0" d="M10.73,34.06h0.48v1.25h1.52v-1.25h0.48v2.86h-0.48v-1.19h-1.52v1.19h-0.48V34.06z"/>
			<path class="st0" d="M15.54,34.06c0.18,0,0.34,0.02,0.49,0.07c0.15,0.05,0.26,0.11,0.36,0.19c0.1,0.09,0.17,0.18,0.22,0.3
				c0.05,0.12,0.08,0.26,0.08,0.41c0,0.16-0.03,0.3-0.08,0.43c-0.05,0.13-0.13,0.23-0.22,0.32c-0.1,0.09-0.22,0.15-0.36,0.2
				c-0.15,0.05-0.3,0.07-0.49,0.07h-0.68v0.87h-0.48v-2.85H15.54z M15.54,35.64c0.11,0,0.21-0.01,0.3-0.04
				c0.09-0.03,0.16-0.06,0.22-0.11c0.06-0.05,0.11-0.11,0.13-0.18s0.05-0.16,0.05-0.26c0-0.1-0.01-0.18-0.05-0.25
				s-0.07-0.13-0.13-0.18c-0.06-0.05-0.13-0.08-0.22-0.11c-0.09-0.03-0.18-0.03-0.3-0.03h-0.68v1.17L15.54,35.64L15.54,35.64z
				 M15.55,35.86h0.48l0.71,1.06h-0.55L15.55,35.86z"/>
			<path class="st0" d="M19.86,35.51c-0.12,0.05-0.22,0.1-0.3,0.15c-0.08,0.05-0.15,0.11-0.19,0.16c-0.05,0.05-0.08,0.11-0.1,0.17
				c-0.02,0.06-0.03,0.11-0.03,0.17s0.01,0.12,0.05,0.17c0.03,0.05,0.07,0.1,0.13,0.13c0.05,0.04,0.12,0.07,0.19,0.09
				c0.07,0.02,0.16,0.03,0.25,0.03c0.15,0,0.29-0.02,0.41-0.07c0.12-0.05,0.22-0.11,0.31-0.2c0.09-0.09,0.16-0.2,0.22-0.34
				c0.06-0.14,0.1-0.3,0.13-0.48l0.37,0.07c-0.04,0.22-0.11,0.43-0.19,0.6c-0.09,0.17-0.19,0.32-0.32,0.44
				c-0.13,0.12-0.26,0.2-0.43,0.26c-0.16,0.06-0.34,0.09-0.53,0.09c-0.15,0-0.28-0.02-0.41-0.05c-0.13-0.04-0.23-0.09-0.32-0.16
				c-0.09-0.07-0.16-0.15-0.21-0.24c-0.05-0.09-0.08-0.19-0.08-0.3c0-0.1,0.01-0.19,0.05-0.28s0.08-0.17,0.15-0.25
				c0.07-0.08,0.15-0.15,0.26-0.22s0.23-0.14,0.38-0.2L19.86,35.51z M21.14,36.97l-1.62-1.58c-0.07-0.07-0.13-0.13-0.18-0.19
				c-0.05-0.06-0.09-0.12-0.12-0.17s-0.05-0.11-0.07-0.17c-0.01-0.05-0.02-0.11-0.02-0.17c0-0.1,0.02-0.18,0.06-0.27
				c0.04-0.08,0.09-0.15,0.17-0.2c0.07-0.06,0.15-0.1,0.25-0.13c0.1-0.03,0.2-0.05,0.32-0.05c0.07,0,0.15,0.01,0.2,0.02
				c0.06,0.01,0.13,0.03,0.18,0.06c0.06,0.03,0.11,0.06,0.16,0.1c0.05,0.04,0.1,0.09,0.14,0.15l-0.26,0.22
				c-0.03-0.03-0.06-0.06-0.09-0.09c-0.03-0.03-0.07-0.05-0.1-0.07c-0.03-0.02-0.07-0.03-0.11-0.05c-0.04-0.01-0.09-0.02-0.13-0.02
				c-0.07,0-0.12,0.01-0.17,0.03c-0.05,0.02-0.09,0.04-0.12,0.07c-0.03,0.03-0.05,0.06-0.07,0.11c-0.01,0.04-0.03,0.09-0.03,0.13
				c0,0.04,0.01,0.07,0.01,0.11c0.01,0.03,0.03,0.07,0.05,0.11c0.03,0.03,0.06,0.08,0.1,0.13c0.04,0.05,0.1,0.11,0.16,0.17
				l1.51,1.48L21.14,36.97z"/>
			<path class="st0" d="M23.5,34.06h0.56L25.05,36l0.98-1.94h0.56v2.86h-0.44l-0.01-2.18l-0.94,1.89h-0.3l-0.95-1.89v2.18H23.5
				L23.5,34.06L23.5,34.06z"/>
			<path class="st0" d="M28.64,34.06h0.5l1.25,2.86h-0.51l-1-2.38l-0.99,2.38h-0.5L28.64,34.06z M28,35.85h1.72v0.41H28V35.85z"/>
			<path class="st0" d="M31.17,34.06h0.48l1.66,2.27l-0.13,0.04v-2.31h0.48v2.86h-0.48l-1.65-2.26l0.13-0.04v2.3h-0.48V34.06z"/>
			<path class="st0" d="M35.71,34.06h0.5l1.25,2.86h-0.51l-1-2.38l-0.99,2.38h-0.5L35.71,34.06z M35.08,35.85h1.72v0.41h-1.72V35.85
				z"/>
			<path class="st0" d="M40.37,34.77c-0.05-0.05-0.11-0.1-0.18-0.14c-0.07-0.04-0.13-0.07-0.2-0.11c-0.07-0.03-0.15-0.05-0.22-0.07
				s-0.15-0.02-0.22-0.02c-0.15,0-0.28,0.03-0.41,0.08c-0.13,0.05-0.24,0.13-0.33,0.22c-0.09,0.09-0.17,0.2-0.22,0.34
				c-0.05,0.13-0.08,0.26-0.08,0.41s0.03,0.28,0.08,0.42c0.05,0.13,0.13,0.24,0.22,0.34c0.09,0.09,0.2,0.17,0.33,0.22
				c0.13,0.05,0.26,0.08,0.41,0.08c0.07,0,0.13-0.01,0.2-0.02c0.07-0.01,0.14-0.03,0.21-0.06s0.14-0.06,0.2-0.1
				c0.07-0.04,0.13-0.08,0.18-0.13l0.28,0.34c-0.07,0.05-0.15,0.11-0.24,0.15c-0.09,0.05-0.18,0.09-0.28,0.12
				c-0.1,0.03-0.19,0.06-0.3,0.08c-0.1,0.02-0.2,0.03-0.3,0.03c-0.21,0-0.41-0.04-0.59-0.11c-0.18-0.08-0.34-0.18-0.48-0.31
				s-0.24-0.29-0.32-0.47S38,35.69,38,35.49c0-0.2,0.04-0.4,0.12-0.57s0.18-0.33,0.32-0.46c0.14-0.13,0.3-0.23,0.49-0.31
				c0.18-0.07,0.39-0.11,0.61-0.11c0.1,0,0.2,0.01,0.3,0.03s0.2,0.05,0.29,0.08c0.09,0.03,0.18,0.08,0.27,0.13
				c0.09,0.05,0.17,0.11,0.23,0.17L40.37,34.77z M40.18,35.69H39.3v-0.41h1.33v1.29h-0.45C40.18,36.58,40.18,35.69,40.18,35.69z"/>
			<path class="st0" d="M41.72,34.06h2.05v0.42H42.2v0.81h1.4v0.41h-1.4v0.82h1.61v0.42h-2.09C41.72,36.93,41.72,34.06,41.72,34.06z
				"/>
			<path class="st0" d="M44.81,34.06h0.56L46.36,36l0.98-1.94h0.56v2.86h-0.44l-0.01-2.18l-0.94,1.89h-0.3l-0.95-1.89v2.18h-0.45
				V34.06z"/>
			<path class="st0" d="M49.06,34.06h2.05v0.42h-1.56v0.81h1.4v0.41h-1.4v0.82h1.61v0.42h-2.09V34.06z"/>
			<path class="st0" d="M52.15,34.06h0.48l1.66,2.27l-0.13,0.04v-2.31h0.48v2.86h-0.48l-1.65-2.26l0.13-0.04v2.3h-0.48V34.06z"/>
			<path class="st0" d="M55.46,34.06h2.29v0.42h-0.91v2.45h-0.48v-2.45h-0.9C55.46,34.48,55.46,34.06,55.46,34.06z"/>
			<path class="st0" d="M61.9,34.81c-0.05-0.06-0.11-0.11-0.17-0.15c-0.06-0.05-0.13-0.09-0.2-0.11c-0.07-0.03-0.14-0.05-0.21-0.07
				s-0.15-0.03-0.22-0.03c-0.15,0-0.28,0.03-0.4,0.08c-0.13,0.05-0.23,0.13-0.32,0.22c-0.09,0.09-0.17,0.2-0.22,0.33
				s-0.08,0.26-0.08,0.41s0.03,0.28,0.08,0.41c0.05,0.13,0.13,0.24,0.22,0.33c0.09,0.09,0.2,0.17,0.32,0.22
				c0.13,0.05,0.26,0.08,0.4,0.08c0.07,0,0.15-0.01,0.22-0.03c0.07-0.01,0.14-0.04,0.21-0.07c0.07-0.03,0.13-0.07,0.2-0.11
				c0.06-0.04,0.12-0.09,0.18-0.15l0.28,0.3c-0.07,0.07-0.15,0.14-0.24,0.19c-0.09,0.06-0.18,0.11-0.27,0.15s-0.19,0.07-0.3,0.09
				c-0.1,0.02-0.2,0.03-0.3,0.03c-0.21,0-0.4-0.04-0.59-0.11c-0.18-0.08-0.34-0.18-0.48-0.31c-0.14-0.13-0.24-0.29-0.32-0.47
				c-0.08-0.18-0.11-0.37-0.11-0.57c0-0.2,0.04-0.4,0.12-0.57c0.08-0.18,0.18-0.33,0.32-0.46c0.13-0.13,0.3-0.23,0.48-0.31
				c0.18-0.07,0.38-0.11,0.59-0.11c0.1,0,0.2,0.01,0.3,0.03c0.1,0.02,0.2,0.05,0.29,0.09c0.09,0.04,0.18,0.09,0.26,0.14
				c0.09,0.05,0.16,0.11,0.23,0.18L61.9,34.81z"/>
			<path class="st0" d="M64.96,34.14c0.18,0.07,0.34,0.18,0.48,0.31c0.14,0.13,0.24,0.28,0.32,0.46c0.08,0.18,0.12,0.37,0.12,0.57
				s-0.04,0.4-0.12,0.57c-0.08,0.18-0.18,0.34-0.32,0.47c-0.14,0.13-0.3,0.24-0.48,0.31s-0.38,0.11-0.6,0.11
				c-0.22,0-0.42-0.04-0.6-0.11c-0.18-0.08-0.34-0.18-0.48-0.31c-0.14-0.13-0.24-0.29-0.32-0.47s-0.12-0.37-0.12-0.57
				s0.04-0.4,0.12-0.57c0.08-0.18,0.18-0.33,0.32-0.46c0.14-0.13,0.3-0.23,0.48-0.31c0.18-0.08,0.38-0.11,0.6-0.11
				C64.58,34.03,64.78,34.07,64.96,34.14z M63.97,34.52c-0.13,0.05-0.24,0.13-0.33,0.22c-0.09,0.09-0.17,0.2-0.22,0.33
				c-0.06,0.13-0.08,0.26-0.08,0.41s0.03,0.28,0.08,0.42s0.13,0.24,0.22,0.34c0.09,0.09,0.2,0.17,0.33,0.22
				c0.13,0.05,0.26,0.09,0.4,0.09c0.14,0,0.27-0.03,0.4-0.09c0.13-0.06,0.23-0.13,0.32-0.22c0.09-0.09,0.17-0.2,0.22-0.34
				c0.05-0.13,0.08-0.26,0.08-0.42c0-0.15-0.03-0.28-0.08-0.41c-0.05-0.13-0.13-0.24-0.22-0.33c-0.09-0.09-0.2-0.17-0.32-0.22
				c-0.13-0.05-0.26-0.08-0.4-0.08C64.23,34.44,64.1,34.47,63.97,34.52z"/>
			<path class="st0" d="M66.8,34.06h0.48l1.66,2.27l-0.13,0.04v-2.31h0.48v2.86h-0.48l-1.65-2.26l0.13-0.04v2.3H66.8V34.06z"/>
			<path class="st0" d="M72.2,34.72c-0.06-0.04-0.13-0.07-0.19-0.11c-0.07-0.03-0.14-0.06-0.21-0.09c-0.07-0.03-0.15-0.04-0.22-0.05
				c-0.07-0.01-0.15-0.02-0.22-0.02c-0.05,0-0.11,0.01-0.16,0.01c-0.05,0.01-0.11,0.03-0.15,0.05c-0.05,0.03-0.09,0.06-0.11,0.1
				c-0.03,0.04-0.05,0.09-0.05,0.16c0,0.08,0.02,0.15,0.07,0.2c0.05,0.05,0.11,0.1,0.18,0.14c0.07,0.04,0.15,0.07,0.24,0.1
				c0.09,0.03,0.18,0.06,0.28,0.09c0.1,0.03,0.19,0.07,0.28,0.11c0.09,0.04,0.17,0.09,0.24,0.15s0.13,0.14,0.17,0.22
				c0.05,0.09,0.07,0.2,0.07,0.33c0,0.15-0.03,0.27-0.1,0.38c-0.07,0.11-0.15,0.19-0.25,0.26c-0.11,0.07-0.22,0.12-0.34,0.15
				c-0.13,0.03-0.26,0.05-0.38,0.05c-0.11,0-0.21-0.01-0.32-0.03s-0.21-0.05-0.31-0.09c-0.1-0.04-0.19-0.09-0.28-0.15
				c-0.09-0.06-0.18-0.12-0.26-0.19l0.21-0.4c0.07,0.06,0.13,0.11,0.21,0.17c0.07,0.05,0.15,0.1,0.24,0.13
				c0.09,0.04,0.17,0.07,0.26,0.09s0.18,0.03,0.26,0.03c0.06,0,0.12-0.01,0.18-0.02c0.06-0.01,0.12-0.03,0.17-0.06
				c0.05-0.03,0.09-0.07,0.13-0.11c0.03-0.05,0.05-0.11,0.05-0.18c0-0.09-0.02-0.15-0.07-0.2s-0.11-0.1-0.17-0.14
				c-0.07-0.04-0.15-0.07-0.24-0.1c-0.09-0.03-0.18-0.05-0.28-0.09c-0.1-0.03-0.19-0.07-0.28-0.11s-0.18-0.09-0.25-0.15
				s-0.13-0.14-0.17-0.22c-0.04-0.09-0.07-0.2-0.07-0.32c0-0.15,0.03-0.26,0.09-0.36s0.15-0.18,0.24-0.24
				c0.1-0.07,0.21-0.11,0.34-0.14c0.13-0.03,0.25-0.05,0.37-0.05c0.09,0,0.18,0.01,0.26,0.02s0.17,0.03,0.26,0.05
				c0.09,0.02,0.17,0.05,0.25,0.09c0.08,0.04,0.16,0.08,0.23,0.13L72.2,34.72z"/>
			<path class="st0" d="M73.83,35.75c0,0.13,0.02,0.24,0.05,0.34c0.03,0.1,0.09,0.18,0.15,0.25c0.07,0.07,0.15,0.12,0.24,0.16
				c0.09,0.04,0.2,0.05,0.32,0.05c0.11,0,0.22-0.02,0.31-0.05c0.09-0.03,0.17-0.09,0.23-0.16c0.07-0.07,0.11-0.15,0.15-0.25
				s0.05-0.21,0.05-0.34v-1.69h0.48v1.69c0,0.18-0.03,0.36-0.09,0.5c-0.06,0.15-0.14,0.28-0.24,0.38c-0.11,0.11-0.23,0.18-0.38,0.24
				s-0.32,0.09-0.51,0.09s-0.36-0.03-0.52-0.09c-0.15-0.05-0.28-0.13-0.39-0.24c-0.11-0.11-0.19-0.23-0.24-0.38
				c-0.06-0.15-0.09-0.32-0.09-0.5v-1.69h0.48L73.83,35.75L73.83,35.75z"/>
			<path class="st0" d="M76.92,34.06h0.48v2.45h1.24v0.42h-1.72V34.06z"/>
			<path class="st0" d="M79.17,34.06h2.29v0.42h-0.91v2.45h-0.48v-2.45h-0.9L79.17,34.06L79.17,34.06z"/>
			<path class="st0" d="M83.17,34.06h0.5l1.25,2.86h-0.51l-1-2.38l-0.99,2.38h-0.5L83.17,34.06z M82.54,35.85h1.72v0.41h-1.72V35.85
				z"/>
			<path class="st0" d="M85.71,34.06h0.48l1.66,2.27l-0.13,0.04v-2.31h0.48v2.86h-0.48l-1.65-2.26l0.13-0.04v2.3h-0.48
				C85.71,36.93,85.71,34.06,85.71,34.06z"/>
			<path class="st0" d="M91.43,34.81c-0.05-0.06-0.11-0.11-0.17-0.15c-0.06-0.05-0.13-0.09-0.2-0.11c-0.07-0.03-0.14-0.05-0.21-0.07
				s-0.15-0.03-0.22-0.03c-0.15,0-0.28,0.03-0.4,0.08c-0.13,0.05-0.23,0.13-0.32,0.22c-0.09,0.09-0.17,0.2-0.22,0.33
				c-0.05,0.13-0.08,0.26-0.08,0.41s0.03,0.28,0.08,0.41c0.05,0.13,0.13,0.24,0.22,0.33c0.09,0.09,0.2,0.17,0.32,0.22
				c0.13,0.05,0.26,0.08,0.4,0.08c0.07,0,0.15-0.01,0.22-0.03c0.07-0.01,0.14-0.04,0.21-0.07c0.07-0.03,0.13-0.07,0.2-0.11
				c0.06-0.04,0.12-0.09,0.18-0.15l0.28,0.3c-0.07,0.07-0.15,0.14-0.24,0.19c-0.09,0.06-0.18,0.11-0.27,0.15s-0.19,0.07-0.3,0.09
				c-0.1,0.02-0.2,0.03-0.3,0.03c-0.21,0-0.4-0.04-0.59-0.11c-0.18-0.08-0.34-0.18-0.48-0.31s-0.24-0.29-0.32-0.47
				c-0.08-0.18-0.11-0.37-0.11-0.57c0-0.2,0.04-0.4,0.12-0.57c0.08-0.18,0.18-0.33,0.32-0.46c0.13-0.13,0.3-0.23,0.48-0.31
				c0.18-0.07,0.38-0.11,0.59-0.11c0.1,0,0.2,0.01,0.3,0.03c0.1,0.02,0.2,0.05,0.29,0.09c0.09,0.04,0.18,0.09,0.26,0.14
				c0.09,0.05,0.16,0.11,0.23,0.18L91.43,34.81z"/>
			<path class="st0" d="M92.24,34.06h0.49l0.82,1.41l0.8-1.41h0.49l-1.26,2.26h-0.07L92.24,34.06z M93.31,35.72h0.48v1.21h-0.48
				V35.72z"/>
		</g>
	</g>
	<g>
		<g>
			<path class="st1" d="M17.6,15.41c-1.81,0-3.31,0.77-4.2,2.17v-7.46h-3.04v11.82c0,4.08,2.75,6.73,6.71,6.73
				c4.01,0,6.81-2.75,6.81-6.76C23.87,17.61,20.66,15.41,17.6,15.41z M17.09,25.84c-2.22,0-3.7-1.58-3.7-3.8s1.48-3.8,3.7-3.8
				s3.72,1.58,3.72,3.8C20.81,24.26,19.31,25.84,17.09,25.84z"/>
			<path class="st1" d="M38.86,22.04c0-3.83-2.75-6.63-6.73-6.63s-6.79,2.81-6.79,6.63s2.81,6.63,6.79,6.63
				c2.98,0,5.28-1.56,6.22-3.95h-3.24c-0.64,0.82-1.63,1.2-2.98,1.2c-1.78,0-3.19-0.97-3.6-2.81h10.33
				C38.86,23.11,38.86,22.04,38.86,22.04z M28.61,20.69c0.48-1.66,1.81-2.52,3.52-2.52c1.66,0,3.04,0.84,3.52,2.52H28.61z"/>
			<path class="st2" d="M44.3,16.02c0-1.94,1.02-2.73,2.5-2.73c1.48,0,2.5,0.77,2.5,2.75h3.01c0-3.72-2.22-5.58-5.51-5.58
				c-3.29,0-5.53,1.83-5.53,5.56v12.65h3.04v-7.63h5.01v-2.76H44.3L44.3,16.02L44.3,16.02z"/>
			<path class="st2" d="M65.39,15.74c-3.29,0-5.53,1.81-5.53,5.61v7.32h3.04v-7.32c0-2.04,1.02-2.78,2.5-2.78
				c1.48,0,2.5,0.74,2.5,2.78v0.13h3.01V21.4C70.9,17.55,68.68,15.74,65.39,15.74z"/>
			<path class="st2" d="M53.56,15.76v2.84c1.23,0.15,2.05,0.93,2.05,2.75v7.32h3.04v-7.32C58.63,17.74,56.59,15.92,53.56,15.76z"/>
			<path class="st2" d="M77.75,20.74c-1.35-0.18-2.5-0.33-2.5-1.3c0-0.74,0.66-1.38,1.99-1.38c1.2,0,1.91,0.53,1.99,1.3h3.01
				c-0.08-2.22-1.96-3.95-5.05-3.95c-3.04,0-5,1.68-5,4.26c0,3.08,2.86,3.42,4.79,3.67c1.35,0.18,2.48,0.3,2.48,1.27
				c0,0.77-0.67,1.41-2.22,1.41c-1.48,0-2.22-0.56-2.24-1.41h-3.06c0.08,2.34,2.09,4.05,5.31,4.05s5.28-1.68,5.28-4.23
				C82.53,21.3,79.44,20.97,77.75,20.74z"/>
			<path class="st2" d="M91.81,23.16v0.34c0,1.71-0.86,2.35-2.12,2.35c-1.25,0-2.12-0.67-2.12-2.35v-5h6.5v-2.98h-6.5v-5.37h-3.04
				v13.12c0,3.72,2.09,5.41,5.15,5.41c3.06,0,5.15-1.68,5.15-5.17v-0.33h-3.02V23.16z"/>
		</g>
		<path class="st1" d="M63.43,12.07c0,1.19-0.5,2.27-1.31,3.03c-0.34-0.61-0.88-1.1-1.52-1.38c0.48-0.39,0.79-0.98,0.79-1.64
			c0-1.17-0.94-2.11-2.11-2.11c-1.17,0-2.11,0.94-2.11,2.11c0,0.67,0.3,1.25,0.79,1.64c-0.65,0.28-1.18,0.77-1.52,1.38
			c-0.81-0.76-1.31-1.83-1.31-3.03c0-2.3,1.86-4.16,4.16-4.16S63.43,9.78,63.43,12.07z"/>
	</g>
</g>
</svg>
