<?xml version="1.0" encoding="UTF-8"?>
<svg id="Layer_1" data-name="Layer 1" xmlns="http://www.w3.org/2000/svg" viewBox="0 0 27.62 11.78">
  <defs>
    <style>
      .cls-1 {
        fill: #508df8;
      }

      .cls-2 {
        fill: #333;
      }

      .cls-3 {
        fill: #1a2653;
      }
    </style>
  </defs>
  <g>
    <path class="cls-2" d="M2.4,9.06h.13v.34h.41v-.34h.13v.78h-.13v-.33h-.41v.33h-.13v-.78Z"/>
    <path class="cls-2" d="M3.71,9.06c.05,0,.09,0,.13.02s.07.03.1.05.05.05.06.08.02.07.02.11,0,.08-.02.12c-.01.03-.03.06-.06.09s-.06.04-.1.05-.08.02-.13.02h-.19v.24h-.13v-.78h.32ZM3.71,9.49s.06,0,.08-.01c.02,0,.04-.02.06-.03s.03-.03.04-.05.01-.04.01-.07,0-.05-.01-.07-.02-.04-.04-.05-.04-.02-.06-.03-.05,0-.08,0h-.19v.32h.19ZM3.71,9.55h.13l.19.29h-.15l-.17-.29Z"/>
    <path class="cls-2" d="M4.89,9.45s-.06.03-.08.04c-.02.01-.04.03-.05.04-.01.01-.02.03-.03.04,0,.02,0,.03,0,.05s0,.03.01.05.02.03.03.04c.01.01.03.02.05.02.02,0,.04,0,.07,0,.04,0,.08,0,.11-.02s.06-.03.08-.06c.02-.03.04-.06.06-.09s.03-.08.04-.13l.1.02c-.01.06-.03.12-.05.16-.02.05-.05.09-.09.12-.03.03-.07.06-.12.07-.04.02-.09.03-.14.03-.04,0-.08,0-.11-.01-.03-.01-.06-.02-.09-.04-.03-.02-.04-.04-.06-.06s-.02-.05-.02-.08c0-.03,0-.05.01-.08s.02-.05.04-.07c.02-.02.04-.04.07-.06s.06-.04.1-.06l.06.07ZM5.24,9.85l-.44-.43s-.04-.04-.05-.05-.02-.03-.03-.05c0-.01-.01-.03-.02-.04s0-.03,0-.04c0-.03,0-.05.02-.07.01-.02.03-.04.04-.06.02-.02.04-.03.07-.04s.06-.01.09-.01c.02,0,.04,0,.06,0s.03,0,.05.02.03.02.04.03c.01.01.03.02.04.04l-.07.06s-.02-.02-.02-.03c0,0-.02-.01-.03-.02,0,0-.02,0-.03-.01s-.02,0-.04,0c-.02,0-.03,0-.04,0s-.02.01-.03.02-.01.02-.02.03c0,.01,0,.02,0,.04,0,.01,0,.02,0,.03s0,.02.01.03.02.02.03.04.03.03.04.04l.41.4-.07.08Z"/>
    <path class="cls-2" d="M5.88,9.06h.15l.27.53.27-.53h.15v.78h-.12v-.6s-.26.51-.26.51h-.08l-.26-.51v.6h-.12v-.78h0Z"/>
    <path class="cls-2" d="M7.28,9.06h.13l.34.78h-.14l-.27-.65-.27.65h-.14l.34-.78ZM7.11,9.55h.47v.11h-.47v-.11Z"/>
    <path class="cls-2" d="M7.97,9.06h.13l.45.62h-.03s0-.62,0-.62h.13v.78h-.13l-.45-.62h.03s0,.62,0,.62h-.13v-.78Z"/>
    <path class="cls-2" d="M9.21,9.06h.13l.34.78h-.14l-.27-.65-.27.65h-.14l.34-.78ZM9.04,9.55h.47v.11h-.47v-.11Z"/>
    <path class="cls-2" d="M10.48,9.25s-.03-.03-.05-.04-.04-.02-.06-.03c-.02,0-.04-.01-.06-.02-.02,0-.04,0-.06,0-.04,0-.08,0-.11.02-.03.01-.06.04-.09.06s-.04.06-.06.09c-.01.03-.02.07-.02.11s0,.08.02.11.04.07.06.09.06.05.09.06.07.02.11.02c.02,0,.04,0,.06,0s.04,0,.06-.02.04-.02.06-.03.03-.02.05-.03l.08.09s-.04.03-.07.04-.05.02-.08.03c-.03,0-.05.02-.08.02-.03,0-.05,0-.08,0-.06,0-.11-.01-.16-.03-.05-.02-.09-.05-.13-.08s-.07-.08-.09-.13-.03-.1-.03-.16.01-.11.03-.16.05-.09.09-.13.08-.06.13-.08c.05-.02.11-.03.17-.03.03,0,.06,0,.08,0,.03,0,.05.01.08.02s.05.02.07.03c.02.01.04.03.06.05l-.07.09ZM10.42,9.5h-.24v-.11h.36v.35h-.12s0-.24,0-.24Z"/>
    <path class="cls-2" d="M10.85,9.06h.56v.11h-.43v.22h.38v.11h-.38v.22h.44v.11h-.57s0-.78,0-.78Z"/>
    <path class="cls-2" d="M11.69,9.06h.15l.27.53.27-.53h.15v.78h-.12v-.6s-.26.51-.26.51h-.08l-.26-.51v.6h-.12v-.78Z"/>
    <path class="cls-2" d="M12.85,9.06h.56v.11h-.43v.22h.38v.11h-.38v.22h.44v.11h-.57v-.78Z"/>
    <path class="cls-2" d="M13.69,9.06h.13l.45.62h-.03s0-.62,0-.62h.13v.78h-.13l-.45-.62h.03s0,.62,0,.62h-.13v-.78Z"/>
    <path class="cls-2" d="M14.59,9.06h.62v.11h-.25v.67h-.13v-.67h-.25s0-.11,0-.11Z"/>
    <path class="cls-2" d="M16.34,9.26s-.03-.03-.05-.04c-.02-.01-.03-.02-.05-.03-.02,0-.04-.01-.06-.02s-.04,0-.06,0c-.04,0-.08,0-.11.02-.03.01-.06.04-.09.06s-.04.06-.06.09-.02.07-.02.11,0,.08.02.11c.01.03.03.06.06.09s.05.05.09.06c.03.01.07.02.11.02.02,0,.04,0,.06,0,.02,0,.04-.01.06-.02.02,0,.04-.02.05-.03.02-.01.03-.03.05-.04l.08.08s-.04.04-.06.05c-.02.02-.05.03-.07.04s-.05.02-.08.03c-.03,0-.06,0-.08,0-.06,0-.11-.01-.16-.03-.05-.02-.09-.05-.13-.08s-.06-.08-.09-.13-.03-.1-.03-.16.01-.11.03-.16.05-.09.09-.13c.04-.04.08-.06.13-.08.05-.02.1-.03.16-.03.03,0,.06,0,.08,0s.05.01.08.02c.03.01.05.02.07.04.02.01.04.03.06.05l-.08.09Z"/>
    <path class="cls-2" d="M17.18,9.08c.05.02.09.05.13.08s.07.08.09.13.03.1.03.16-.01.11-.03.16-.05.09-.09.13-.08.06-.13.08c-.05.02-.1.03-.16.03s-.11-.01-.16-.03c-.05-.02-.09-.05-.13-.08-.04-.04-.07-.08-.09-.13s-.03-.1-.03-.16.01-.11.03-.16.05-.09.09-.13.08-.06.13-.08.1-.03.16-.03.11.01.16.03ZM16.91,9.18s-.06.04-.09.06-.04.06-.06.09-.02.07-.02.11,0,.08.02.11.04.07.06.09.06.05.09.06.07.02.11.02.07,0,.11-.02.06-.04.09-.06.04-.06.06-.09.02-.07.02-.11,0-.08-.02-.11-.03-.06-.06-.09-.05-.04-.09-.06c-.03-.01-.07-.02-.11-.02-.04,0-.07,0-.11.02Z"/>
    <path class="cls-2" d="M17.68,9.06h.13l.45.62h-.03s0-.62,0-.62h.13v.78h-.13l-.45-.62h.03s0,.62,0,.62h-.13v-.78Z"/>
    <path class="cls-2" d="M19.15,9.24s-.03-.02-.05-.03-.04-.02-.06-.02-.04-.01-.06-.01-.04,0-.06,0c-.01,0-.03,0-.04,0-.01,0-.03,0-.04.01s-.02.02-.03.03-.01.03-.01.04c0,.02,0,.04.02.06s.03.03.05.04c.02.01.04.02.07.03s.05.02.08.02c.03,0,.05.02.08.03s.05.03.07.04.04.04.05.06c.01.03.02.05.02.09,0,.04,0,.07-.03.1s-.04.05-.07.07c-.03.02-.06.03-.09.04-.03,0-.07.01-.1.01-.03,0-.06,0-.09,0s-.06-.01-.08-.02c-.03-.01-.05-.02-.08-.04s-.05-.03-.07-.05l.06-.11s.04.03.06.04c.02.01.04.03.06.04.02.01.05.02.07.02.02,0,.05,0,.07,0,.02,0,.03,0,.05,0,.02,0,.03,0,.05-.02s.03-.02.03-.03.01-.03.01-.05c0-.02,0-.04-.02-.06s-.03-.03-.05-.04-.04-.02-.07-.03-.05-.01-.08-.02-.05-.02-.08-.03-.05-.02-.07-.04-.04-.04-.05-.06-.02-.05-.02-.09c0-.04,0-.07.03-.1.02-.03.04-.05.07-.07.03-.02.06-.03.09-.04s.07-.01.1-.01c.02,0,.05,0,.07,0,.02,0,.05,0,.07.01s.04.01.07.03c.02.01.04.02.06.03l-.06.11Z"/>
    <path class="cls-2" d="M19.6,9.52s0,.06.01.09c0,.03.02.05.04.07.02.02.04.03.06.04s.05.01.09.01c.03,0,.06,0,.08-.01.03,0,.05-.02.06-.04.02-.02.03-.04.04-.07s.01-.06.01-.09v-.46h.13v.46c0,.05,0,.1-.02.14-.02.04-.04.08-.07.1-.03.03-.06.05-.1.06s-.09.02-.14.02-.1,0-.14-.02c-.04-.01-.08-.04-.11-.06-.03-.03-.05-.06-.07-.1-.02-.04-.02-.09-.02-.14v-.46h.13v.46h0Z"/>
    <path class="cls-2" d="M20.44,9.06h.13v.67h.34v.11h-.47v-.78Z"/>
    <path class="cls-2" d="M21.05,9.06h.62v.11h-.25v.67h-.13v-.67h-.25v-.11h0Z"/>
    <path class="cls-2" d="M22.14,9.06h.13l.34.78h-.14l-.27-.65-.27.65h-.14l.34-.78ZM21.97,9.55h.47v.11h-.47v-.11Z"/>
    <path class="cls-2" d="M22.83,9.06h.13l.45.62h-.03s0-.62,0-.62h.13v.78h-.13l-.45-.62h.03s0,.62,0,.62h-.13s0-.78,0-.78Z"/>
    <path class="cls-2" d="M24.39,9.26s-.03-.03-.05-.04c-.02-.01-.03-.02-.05-.03-.02,0-.04-.01-.06-.02s-.04,0-.06,0c-.04,0-.08,0-.11.02-.03.01-.06.04-.09.06s-.04.06-.06.09-.02.07-.02.11,0,.08.02.11c.01.03.03.06.06.09s.05.05.09.06.07.02.11.02c.02,0,.04,0,.06,0,.02,0,.04-.01.06-.02.02,0,.04-.02.05-.03.02-.01.03-.03.05-.04l.08.08s-.04.04-.06.05c-.02.02-.05.03-.07.04s-.05.02-.08.03c-.03,0-.06,0-.08,0-.06,0-.11-.01-.16-.03-.05-.02-.09-.05-.13-.08s-.06-.08-.09-.13-.03-.1-.03-.16.01-.11.03-.16.05-.09.09-.13.08-.06.13-.08c.05-.02.1-.03.16-.03.03,0,.06,0,.08,0,.03,0,.05.01.08.02.03.01.05.02.07.04.02.01.04.03.06.05l-.08.09Z"/>
    <path class="cls-2" d="M24.61,9.06h.13l.22.38.22-.38h.13l-.34.62h-.02l-.35-.62ZM24.9,9.51h.13v.33h-.13v-.33Z"/>
  </g>
  <g>
    <g>
      <path class="cls-1" d="M4.27,3.98c-.49,0-.9.21-1.15.59v-2.03h-.83v3.22c0,1.11.75,1.83,1.83,1.83s1.86-.75,1.86-1.84c0-1.17-.88-1.77-1.71-1.77ZM4.13,6.82c-.6,0-1.01-.43-1.01-1.04s.4-1.04,1.01-1.04,1.01.43,1.01,1.04-.41,1.04-1.01,1.04Z"/>
      <path class="cls-1" d="M10.07,5.78c0-1.04-.75-1.81-1.83-1.81s-1.85.76-1.85,1.81.76,1.81,1.85,1.81c.81,0,1.44-.42,1.7-1.08h-.88c-.17.22-.44.33-.81.33-.49,0-.87-.26-.98-.76h2.81s0-.29,0-.29ZM7.27,5.42c.13-.45.49-.69.96-.69s.83.23.96.69h-1.92Z"/>
      <path class="cls-3" d="M11.55,4.14c0-.53.28-.74.68-.74s.68.21.68.75h.82c0-1.01-.6-1.52-1.5-1.52s-1.51.5-1.51,1.51v3.45h.83v-2.08h1.37v-.75h-1.37v-.62h0Z"/>
      <path class="cls-3" d="M17.3,4.07c-.9,0-1.51.49-1.51,1.53v1.99h.83v-1.99c0-.56.28-.76.68-.76s.68.2.68.76v.03h.82v-.02c0-1.05-.61-1.54-1.5-1.54Z"/>
      <path class="cls-3" d="M14.07,4.07v.78c.33.04.56.25.56.75v1.99h.83v-1.99c0-.99-.56-1.48-1.38-1.53Z"/>
      <path class="cls-3" d="M20.66,5.43c-.37-.05-.68-.09-.68-.35,0-.2.18-.38.54-.38.33,0,.52.15.54.35h.82c-.02-.6-.53-1.08-1.38-1.08s-1.36.46-1.36,1.16c0,.84.78.93,1.31,1,.37.05.67.08.67.35,0,.21-.18.38-.6.38s-.6-.15-.61-.38h-.83c.02.64.57,1.1,1.45,1.1s1.44-.46,1.44-1.15c0-.85-.84-.94-1.3-1.01Z"/>
      <path class="cls-3" d="M24.49,6.09v.09c0,.47-.24.64-.58.64s-.58-.18-.58-.64v-1.36h1.77v-.81h-1.77v-1.46h-.83v3.58c0,1.01.57,1.47,1.4,1.47s1.4-.46,1.4-1.41v-.09h-.82Z"/>
    </g>
    <path class="cls-1" d="M16.76,3.07c0,.33-.14.62-.36.83-.09-.17-.24-.3-.41-.38.13-.11.21-.27.21-.45,0-.32-.26-.58-.58-.58s-.58.26-.58.58c0,.18.08.34.21.45-.18.08-.32.21-.41.38-.22-.21-.36-.5-.36-.83,0-.63.51-1.13,1.13-1.13s1.13.51,1.13,1.13Z"/>
  </g>
</svg>